<svg width="118" height="118" viewBox="0 0 118 118" fill="none" xmlns="http://www.w3.org/2000/svg">
<rect width="118" height="118" fill="#38D3F7"/>
<path d="M56.4625 97C57.7828 97 58.8097 96.4154 59.3965 95.1L95.6305 23.9231C96.5106 22.1692 95.7772 21 93.8701 21H75.6798C74.2128 21 73.1859 21.7308 72.5991 22.9L58.663 54.6154C56.0224 60.9 53.3819 67.6231 50.7414 74.0538H50.448C50.0079 67.4769 49.2744 59.7308 48.6876 54.7615L45.1669 23.3385C45.0202 21.7308 43.9933 21 42.5264 21H25.5096C23.7493 21 22.8691 22.0231 23.0158 23.6308L34.3114 94.6615C34.4581 96.2692 35.485 97 37.0986 97H56.4625Z" fill="#FF659D"/>
</svg>
