<svg width="364" height="213" viewBox="0 0 364 213" fill="none" xmlns="http://www.w3.org/2000/svg">
<!-- <rect width="364" height="213" rx="12" fill="#38D3F7"/> -->
<path d="M85.5605 131C86.1365 131 86.5845 130.744 86.8405 130.168L102.648 99C103.032 98.232 102.712 97.72 101.88 97.72H93.9445C93.3045 97.72 92.8565 98.04 92.6005 98.552L86.5205 112.44C85.3685 115.192 84.2165 118.136 83.0645 120.952H82.9365C82.7445 118.072 82.4245 114.68 82.1685 112.504L80.6325 98.744C80.5685 98.04 80.1205 97.72 79.4805 97.72H72.0565C71.2885 97.72 70.9045 98.168 70.9685 98.872L75.8965 129.976C75.9605 130.68 76.4085 131 77.1125 131H85.5605ZM131.898 119.16L133.37 111.096C134.714 103.288 129.594 96.824 120.826 96.824C111.93 96.824 105.658 101.624 104.25 109.368L102.906 117.304C101.434 125.432 106.618 131.832 115.194 131.832C124.602 131.832 130.426 127.224 131.898 119.16ZM112.506 118.264L113.978 110.008C114.49 107.128 116.666 105.208 119.738 105.208C122.81 105.208 124.154 107.576 123.642 110.456L122.17 118.648C121.658 121.656 119.61 123.448 116.282 123.448C113.274 123.448 111.93 121.4 112.506 118.264ZM151.556 131.512C152.004 131.448 152.26 131.128 152.388 130.488L153.412 124.408C153.54 123.64 153.156 123.32 152.388 123.384C152.004 123.384 151.556 123.384 151.108 123.384C148.804 123.384 148.036 121.656 148.612 118.584L154.244 86.456C154.372 85.752 153.988 85.24 153.284 85.24H145.86C145.22 85.24 144.836 85.624 144.708 86.264L139.076 118.072C137.668 126.392 141.252 131.832 148.164 131.832C149.508 131.832 150.66 131.704 151.556 131.512ZM173.213 131C173.789 131 174.237 130.744 174.493 130.168L190.301 99C190.685 98.232 190.365 97.72 189.533 97.72H181.597C180.957 97.72 180.509 98.04 180.253 98.552L174.173 112.44C173.021 115.192 171.869 118.136 170.717 120.952H170.589C170.397 118.072 170.077 114.68 169.821 112.504L168.285 98.744C168.221 98.04 167.773 97.72 167.133 97.72H159.709C158.941 97.72 158.557 98.168 158.621 98.872L163.549 129.976C163.613 130.68 164.061 131 164.765 131H173.213ZM214.749 129.592C215.325 129.4 215.581 128.952 215.709 128.376L218.589 112.184C220.317 102.584 215.837 96.824 207.133 96.824C201.949 96.824 197.149 97.976 194.077 99.832C193.693 100.088 193.693 100.536 193.885 101.112L195.869 106.36C196.125 107.064 196.637 107.192 197.341 106.872C199.261 105.976 202.141 105.4 204.957 105.4C208.989 105.4 209.885 107.128 209.309 110.264L209.181 111.288C207.581 110.968 205.661 110.776 203.741 110.776C195.549 110.776 190.301 113.528 189.213 119.736C187.933 126.712 192.477 131.832 201.437 131.832C206.365 131.832 211.101 130.872 214.749 129.592ZM198.749 120.248C199.069 118.328 200.733 117.304 203.869 117.304C205.277 117.304 206.749 117.496 207.965 117.752L207.069 123.32C205.917 123.576 204.125 123.832 202.653 123.832C199.837 123.832 198.301 122.68 198.749 120.248ZM231.445 131C232.149 131 232.533 130.616 232.661 129.976L238.165 98.872C238.293 98.168 237.909 97.72 237.141 97.72H229.717C229.077 97.72 228.629 98.04 228.565 98.68L223.061 129.784C222.933 130.488 223.317 131 224.021 131H231.445ZM240.277 88.44C240.917 84.984 238.869 82.424 235.605 82.424C232.661 82.424 230.485 84.28 229.973 87.096C229.333 90.424 231.381 93.048 234.645 93.048C237.525 93.048 239.765 91.064 240.277 88.44ZM249.289 131C249.929 131 250.313 130.616 250.441 129.976L254.601 106.36C255.689 105.912 257.097 105.592 258.761 105.592C260.105 105.592 261.385 105.72 262.473 105.912C263.177 105.976 263.689 105.656 263.753 104.952L264.905 98.68C265.033 98.04 264.713 97.528 264.009 97.4C262.153 97.016 260.425 96.824 258.697 96.824C254.665 96.824 250.569 97.784 246.857 99.512C246.345 99.768 246.025 100.152 245.897 100.728L240.841 129.784C240.713 130.488 241.097 131 241.865 131H249.289ZM267.436 109.112L265.772 118.392C264.3 126.712 270.124 131.832 278.508 131.832C284.076 131.832 288.428 130.296 291.884 127.928C292.46 127.608 292.524 127.032 292.268 126.392L289.644 121.464C289.324 120.76 288.812 120.696 288.172 121.144C285.612 122.68 282.668 123.704 279.852 123.704C276.332 123.704 274.796 122.04 275.436 118.648L275.628 117.752H293.42C294.06 117.752 294.444 117.432 294.572 116.792L295.66 110.584C297.388 101.176 291.564 96.824 283.372 96.824C275.628 96.824 268.972 100.728 267.436 109.112ZM286.124 111.352H276.78L277.1 109.624C277.676 106.616 279.788 104.952 282.54 104.952C285.804 104.952 286.892 107.192 286.444 109.752L286.124 111.352Z" fill="#FF659D"/>
</svg>
